PathFileType	4	(X/Y/Z)	C:\Users\dbl\Desktop\20210112\20210112\bx_n_5_1802.trc
DataRate	CameraRate	NumFrames	NumMarkers	Units	OrigDataRate	OrigDataStartFrame	OrigNumFrames
50.00	50.00	       8	43	mm	50.00	66	       523
Frame#	Time	Top.Head			R.Acromium			L.Acromium			Sternum			R.ASIS			L.ASIS			V.Sacral			R.Thigh.Upper			R.Thigh.Front			R.Thigh.Rear			R.Knee.Lat			R.Knee.Med			R.Shank.Upper			R.Shank.Front			R.Shank.Rear			R.Ankle.Lat			R.Midfoot.Lat			R.Toe.Lat			R.Toe.Tip			R.Toe.Med			R.Ankle.Med			R.Midfoot.Sup			R.Heel			L.Thigh.Upper			L.Thigh.Front			L.Thigh.Rear			L.Knee.Lat			L.Knee.Med			L.Shank.Upper			L.Shank.Front			L.Shank.Rear			L.Ankle.Lat			L.Midfoot.Lat			L.Toe.Lat			L.Toe.Tip			L.Toe.Med			L.Ankle.Med			L.Midfoot.Sup			L.Heel			origin1 front left			origin2 front right			origin 3 back right			origin 4 back leftt			
		X1	Y1	Z1	X2	Y2	Z2	X3	Y3	Z3	X4	Y4	Z4	X5	Y5	Z5	X6	Y6	Z6	X7	Y7	Z7	X8	Y8	Z8	X9	Y9	Z9	X10	Y10	Z10	X11	Y11	Z11	X12	Y12	Z12	X13	Y13	Z13	X14	Y14	Z14	X15	Y15	Z15	X16	Y16	Z16	X17	Y17	Z17	X18	Y18	Z18	X19	Y19	Z19	X20	Y20	Z20	X21	Y21	Z21	X22	Y22	Z22	X23	Y23	Z23	X24	Y24	Z24	X25	Y25	Z25	X26	Y26	Z26	X27	Y27	Z27	X28	Y28	Z28	X29	Y29	Z29	X30	Y30	Z30	X31	Y31	Z31	X32	Y32	Z32	X33	Y33	Z33	X34	Y34	Z34	X35	Y35	Z35	X36	Y36	Z36	X37	Y37	Z37	X38	Y38	Z38	X39	Y39	Z39	X40	Y40	Z40	X41	Y41	Z41	X42	Y42	Z42	X43	Y43	Z43	

66	1.300	-643.79144	125.73909	1847.22705	-675.09015	-67.09818	1536.99817	-700.26031	296.07397	1524.70947	-593.62787	114.11730	1350.90564	-587.68103	-1.90433	1054.34485	-595.13135	247.15045	1066.07288	-791.78632	100.40074	1052.71753	-653.44745	-67.70676	871.82239	-578.29010	-2.02560	803.67242	-675.36334	-58.12760	757.13324	-698.70001	-30.21998	614.51709	-687.00763	78.89320	572.78094	-708.27905	-28.14909	567.70642	-660.32922	22.13884	517.02490	-753.32159	-41.32647	489.20551	-756.48505	-16.54019	207.59666	-649.33948	-66.78288	162.97183	-608.08881	-74.13623	159.32379	-548.81171	-31.28907	164.08563	-597.40094	25.98139	166.16435	-716.49384	72.58260	214.99310	-671.82330	55.30182	156.09407	-791.15143	42.71311	175.71378	-677.93317	290.13727	872.38391	-576.82898	217.76680	815.14227	-687.72070	272.86121	743.36566	-719.00378	253.07350	642.44922	-680.54474	146.68272	578.00305	-721.27386	248.90382	576.31586	-668.56348	207.44148	534.16620	-762.60773	258.81812	502.54800	-767.90155	226.10632	205.68069	-661.02832	298.41660	157.56801	-624.70062	306.83536	158.43736	-556.18048	257.00943	164.60423	-591.71149	219.54979	174.18790	-711.58325	152.97981	216.34538	-674.38702	171.58812	157.22729	-795.20612	176.92422	184.67503	-528.25238	304.26138	146.37798	-517.72046	-72.82611	143.39801	-875.85626	-78.68956	141.24930	-882.66266	296.14944	144.59438	
67	1.320	-642.32782	125.64230	1847.22278	-675.00110	-67.15121	1536.99390	-700.17682	296.03305	1524.85852	-593.97919	114.03751	1350.86548	-588.57050	-2.01087	1054.40637	-596.13660	247.06200	1066.09912	-792.71082	100.29752	1052.82935	-654.36603	-67.82504	872.03247	-578.94012	-2.36888	803.95160	-676.17719	-58.13136	757.06543	-699.18597	-30.36062	614.71729	-687.05463	78.83608	572.84570	-708.53961	-28.14968	567.87183	-660.34808	22.05069	517.03723	-753.75269	-41.10585	489.34253	-756.54657	-16.58810	207.57568	-649.38495	-66.92451	162.91614	-608.06793	-74.14989	159.29163	-548.87183	-31.29540	164.09386	-597.41711	25.87353	166.21661	-716.49213	72.51185	214.98000	-671.80127	55.28080	156.10185	-790.99518	42.62738	175.64772	-678.81030	290.35992	872.49347	-577.67401	217.81595	815.42316	-688.45477	272.86218	743.53876	-719.61505	253.03430	642.58612	-680.84161	146.66216	578.12152	-721.70172	248.74222	576.29059	-668.69006	207.43237	534.41876	-762.98773	258.77975	502.74768	-767.90009	226.18835	205.62778	-661.03259	298.45297	157.49579	-624.73431	306.85309	158.41922	-556.23120	257.01352	164.62433	-591.72046	219.58492	174.23491	-711.47833	153.04646	216.35986	-674.34058	171.59248	157.27518	-795.20465	177.04585	184.66853	-528.23615	304.22491	146.36978	-517.72919	-72.83055	143.41525	-875.85785	-78.70737	141.23875	-882.67517	296.09521	144.54724	
68	1.340	-640.65106	125.52917	1847.20801	-674.83386	-67.19801	1536.99487	-700.01971	295.99496	1525.07312	-594.33063	113.96528	1350.82507	-589.55603	-2.10943	1054.50500	-597.24042	247.03091	1066.20471	-793.74841	100.13577	1052.99512	-655.38507	-67.95199	872.25287	-579.69745	-2.71717	804.26648	-677.13995	-58.06286	756.96179	-699.76233	-30.41825	614.83679	-687.07776	78.73154	572.85199	-708.80994	-28.13432	568.06641	-660.40100	21.87478	517.08948	-754.21368	-40.91277	489.46228	-756.64911	-16.65794	207.53143	-649.44708	-67.03712	162.85089	-608.01422	-74.17300	159.27502	-548.95660	-31.30188	164.11540	-597.47510	25.75496	166.29465	-716.50171	72.46719	215.04733	-671.76361	55.26048	156.19684	-790.86945	42.55985	175.59398	-679.74622	290.54300	872.57587	-578.59540	217.83136	815.74634	-689.18781	272.90143	743.74762	-720.19623	252.99481	642.74054	-681.12872	146.65085	578.32513	-722.04785	248.61594	576.40021	-668.79071	207.38165	534.72162	-763.25848	258.68900	502.89084	-767.87506	226.27682	205.58049	-661.04987	298.47299	157.43929	-624.74347	306.87427	158.42395	-556.27893	257.01941	164.67566	-591.74475	219.62563	174.28903	-711.32434	153.12843	216.39867	-674.32306	171.60368	157.33922	-795.21008	177.17091	184.68663	-528.21277	304.18085	146.35083	-517.74811	-72.83869	143.43706	-875.86780	-78.72458	141.23575	-882.66833	296.04788	144.51485	
69	1.360	-638.72290	125.38757	1847.13904	-674.59167	-67.24310	1537.01563	-699.78839	295.94577	1525.35547	-594.67908	113.91839	1350.80750	-590.62579	-2.27719	1054.69495	-598.49011	246.96159	1066.38037	-794.87646	99.95499	1053.21228	-656.49219	-68.08987	872.44141	-580.59271	-3.11784	804.57770	-678.21222	-58.04194	756.97748	-700.38245	-30.39491	614.89221	-687.13324	78.58650	572.86169	-709.16547	-28.08976	568.24963	-660.50110	21.62902	517.23096	-754.67407	-40.75671	489.56158	-756.80060	-16.76165	207.48285	-649.51624	-67.14986	162.77406	-607.93335	-74.23563	159.26845	-549.04639	-31.33288	164.15703	-597.59033	25.64638	166.39114	-716.48871	72.40476	215.19681	-671.75903	55.18907	156.41586	-790.87445	42.54451	175.58740	-680.71790	290.70602	872.66437	-579.54889	217.74664	816.12579	-689.91449	272.89279	743.93701	-720.68500	252.87529	642.87402	-681.37347	146.59824	578.65533	-722.26819	248.52161	576.62061	-668.81891	207.26237	535.03137	-763.33893	258.52856	502.92941	-767.84698	226.35419	205.56946	-661.07208	298.48248	157.40927	-624.72278	306.87994	158.43503	-556.31763	257.01318	164.71689	-591.78198	219.66162	174.33392	-711.14532	153.25726	216.46979	-674.34338	171.62245	157.41298	-795.21759	177.26427	184.68195	-528.19635	304.16031	146.33955	-517.76910	-72.84180	143.45337	-875.88385	-78.74219	141.24196	-882.65143	296.03574	144.51402	
70	1.380	-636.49280	125.20611	1847.01892	-674.26715	-67.28724	1537.06250	-699.47601	295.87451	1525.70361	-595.02118	113.88369	1350.80701	-591.80133	-2.54850	1054.99646	-599.90356	246.84778	1066.57947	-796.10785	99.77260	1053.48706	-657.71240	-68.23637	872.59766	-581.63446	-3.56921	804.83698	-679.36841	-58.12410	757.13763	-701.02509	-30.35873	614.95380	-687.27893	78.40611	572.94299	-709.65948	-28.01738	568.38025	-660.65656	21.35688	517.45465	-755.13440	-40.61918	489.63336	-757.01160	-16.88289	207.44771	-649.59094	-67.28534	162.67601	-607.87061	-74.35876	159.24693	-549.12683	-31.39151	164.21910	-597.74805	25.55835	166.49902	-716.42792	72.30772	215.39925	-671.84381	55.04508	156.74660	-791.01215	42.55599	175.62721	-681.78113	290.86710	872.78589	-580.52020	217.56606	816.62280	-690.62555	272.81387	744.08307	-721.01959	252.64125	642.96277	-681.49170	146.43768	579.12329	-722.30499	248.39272	576.84473	-668.70038	207.09085	535.32397	-763.20276	258.30310	502.87729	-767.82635	226.41577	205.60445	-661.09558	298.48758	157.40157	-624.69196	306.86490	158.44630	-556.33582	256.98260	164.71883	-591.82092	219.68695	174.36165	-710.95813	153.42636	216.55032	-674.38428	171.64026	157.47958	-795.21667	177.32246	184.63420	-528.18903	304.17682	146.35373	-517.78412	-72.84895	143.45810	-875.89691	-78.75887	141.24734	-882.64215	296.05582	144.53159	
71	1.400	-633.90143	124.97212	1846.91077	-673.82654	-67.33109	1537.14282	-699.07538	295.77570	1526.11389	-595.35339	113.83369	1350.78833	-593.12012	-2.79028	1055.37109	-601.45953	246.74409	1066.81348	-797.47998	99.56953	1053.82031	-659.06677	-68.36649	872.74756	-582.81134	-4.00179	805.06061	-680.60803	-58.22308	757.33032	-701.68854	-30.36284	615.06604	-687.53406	78.19632	573.08887	-710.26489	-27.94775	568.47498	-660.88843	21.07088	517.70184	-755.62488	-40.48270	489.66452	-757.29340	-16.99968	207.42668	-649.69568	-67.45557	162.53345	-607.87646	-74.52731	159.17152	-549.20807	-31.45448	164.28897	-597.92487	25.48565	166.63150	-716.33734	72.19971	215.60645	-672.04193	54.83953	157.10410	-791.18091	42.53430	175.67372	-683.01178	290.97653	872.93408	-581.53961	217.39476	817.28876	-691.31494	272.70578	744.21863	-721.16943	252.32072	643.00531	-681.35162	146.19095	579.67554	-722.08191	248.19141	577.00140	-668.34369	206.91116	535.59955	-762.84113	258.01108	502.78616	-767.80518	226.45990	205.66862	-661.12280	298.48361	157.40080	-624.67529	306.85406	158.47185	-556.33649	256.93896	164.69987	-591.84448	219.70038	174.37868	-710.76575	153.58676	216.60957	-674.42175	171.65222	157.51387	-795.21161	177.35677	184.57594	-528.18610	304.21127	146.38222	-517.79236	-72.86868	143.44270	-875.89557	-78.76431	141.24518	-882.64197	296.08661	144.55428	
72	1.420	-630.89856	124.68162	1846.84692	-673.21631	-67.37373	1537.27429	-698.58813	295.65735	1526.56433	-595.67114	113.75763	1350.71545	-594.59973	-2.82884	1055.77002	-603.18878	246.66156	1067.10071	-799.00586	99.31032	1054.18604	-660.54407	-68.47684	872.92273	-584.10114	-4.38065	805.32117	-681.92670	-58.24496	757.48792	-702.37872	-30.42077	615.22253	-687.81738	77.98647	573.22943	-710.88623	-27.89836	568.56921	-661.20557	20.73979	517.93732	-756.17804	-40.33395	489.67142	-757.63446	-17.12196	207.41042	-649.84106	-67.67591	162.32903	-607.94873	-74.70943	159.02716	-549.32001	-31.51068	164.36430	-598.11169	25.41995	166.81490	-716.24182	72.09975	215.77925	-672.30200	54.61134	157.40178	-791.29944	42.45303	175.70065	-684.44208	290.95572	873.07745	-582.61151	217.38931	818.10522	-691.99243	272.59045	744.39569	-721.13342	251.95905	643.00745	-680.82159	145.96640	580.19604	-721.55060	247.95743	577.11499	-667.65002	206.75334	535.84851	-762.23846	257.66025	502.71423	-767.77094	226.49013	205.73569	-661.15491	298.46063	157.39844	-624.67358	306.86295	158.51662	-556.33838	256.90991	164.69637	-591.84528	219.70518	174.39461	-710.56628	153.70366	216.62767	-674.44769	171.66365	157.50150	-795.21149	177.38921	184.54982	-528.18579	304.22815	146.39571	-517.79877	-72.88737	143.40018	-875.88092	-78.75482	141.23715	-882.63940	296.11078	144.58078	
73	1.440	-627.46106	124.34650	1846.77747	-672.38922	-67.41650	1537.47644	-698.01587	295.54013	1527.02161	-595.96783	113.67725	1350.57727	-596.24243	-2.65831	1056.16772	-605.17688	246.57887	1067.40723	-800.70117	98.97483	1054.55103	-662.13287	-68.60163	873.14325	-585.46729	-4.74613	805.66302	-683.30756	-58.22814	757.66254	-703.09503	-30.51225	615.39575	-687.95319	77.82512	573.33276	-711.42474	-27.85230	568.66193	-661.56525	20.34009	518.18127	-756.77124	-40.13744	489.72110	-757.98694	-17.28360	207.38907	-649.99213	-67.94646	162.08046	-608.03369	-74.89326	158.85254	-549.49231	-31.57326	164.46547	-598.30371	25.35474	167.05893	-716.15204	71.97982	215.90488	-672.52887	54.40170	157.63562	-791.35895	42.31894	175.72366	-686.06494	290.79257	873.18774	-583.67773	217.65280	819.00671	-692.64856	272.42789	744.62659	-720.90552	251.59892	642.97272	-679.81927	145.84465	580.59351	-720.69458	247.72844	577.21698	-666.56049	206.62979	536.04193	-761.37402	257.30725	502.70303	-767.71674	226.52281	205.78009	-661.18475	298.42627	157.39305	-624.67432	306.87790	158.56604	-556.34521	256.91666	164.70517	-591.83337	219.70815	174.41043	-710.35370	153.77502	216.60973	-674.47192	171.68559	157.45645	-795.21240	177.43407	184.56844	-528.18726	304.21606	146.38370	-517.80359	-72.89044	143.34645	-875.86737	-78.73956	141.22662	-882.63092	296.13354	144.61264	
